<svg width="40" height="34" fill="none" xmlns="http://www.w3.org/2000/svg"><path fill-rule="evenodd" clip-rule="evenodd" d="M0 14.394h6.904l5.063 13.394h10.975l3.491-8.288.567-1.345-1.894-.655-.513 1.217-2.978 7.07h-8.266L8.286 12.395H0v2zm24.47 2.575l-1.97-2h-8.323v2H24.47z" fill="#000" fill-opacity=".8"/><ellipse cx="13.671" cy="31.939" rx="2.025" ry="2.061" fill="#000" fill-opacity=".8"/><ellipse cx="21.772" cy="31.939" rx="2.025" ry="2.061" fill="#000" fill-opacity=".8"/><path d="M39 10.303c0 5.154-4.102 9.303-9.126 9.303-5.025 0-9.127-4.149-9.127-9.303C20.747 5.149 24.85 1 29.874 1 34.898 1 39 5.149 39 10.303z" stroke="#000" stroke-width="2"/></svg>