<svg width="32" height="49" fill="none" xmlns="http://www.w3.org/2000/svg"><path d="M21.302 10.641c-1.395 2.022-.558 4.64 1.852 5.81 2.411 1.171 5.532.469 6.928-1.553 1.395-2.022.558-4.64-1.852-5.81-2.411-1.171-5.532-.469-6.928 1.553z" fill="#fff"/><path d="M25.286 20.027s-4.136-2-6.597-3.193c-5.405-2.639-7.638-8.151-5.532-12.919.432-.979-.025-2.064-1.09-2.575-1.346-.638-3.097-.149-3.63 1.064-2.41 5.342-.888 11.387 3.705 15.473L.343 35.01c-.71 1.022-.279 2.32.939 2.916 1.218.596 2.766.234 3.476-.787l2.538-3.682 4.39 2.128-6.344 9.216c-.71 1.021-.28 2.32.939 2.916 1.218.596 2.766.234 3.476-.788L24.45 25.603c2.487 2.852 3.197 6.64 1.675 10.046-.432.958.05 2.043 1.09 2.554 1.346.66 3.096.17 3.655-1.064 2.46-5.577 1.04-12.43-5.583-17.112zM17.445 5.959c1.828.872 4.137.361 5.202-1.171 1.04-1.532.432-3.47-1.395-4.363-1.827-.873-4.136-.362-5.202 1.17-1.04 1.533-.432 3.491 1.395 4.364z" fill="#fff"/></svg>