<svg width="42" height="36" fill="none" xmlns="http://www.w3.org/2000/svg"><path d="M21.003 16.626c0-1.463-.819-2.768-2.058-3.33l-11.72-5.31c-3.108 3.78-4.873 8.325-5.88 12.263h16.277c1.87 0 3.381-1.62 3.381-3.623z" fill="#fff"/><path d="M41.923 16.244C41.062 6.32 32.345-.61 23.062.042c-5.272.36-9.326 2.116-12.455 4.59l9.955 4.524c2.794 1.282 4.621 4.207 4.621 7.47 0 4.478-3.402 8.123-7.582 8.123H.44C0 27.697 0 29.7 0 29.7v1.8C0 33.976 1.89 36 4.2 36h21.004c9.809 0 17.664-9.023 16.719-19.756z" fill="#fff"/></svg>