<svg width="42" height="35" fill="none" xmlns="http://www.w3.org/2000/svg"><path d="M23.29 30.797h-4.567v-4.203h4.567v4.203zm-9.135-6.304v8.405c0 1.156 1.028 2.102 2.284 2.102h9.135c1.256 0 2.284-.946 2.284-2.102v-8.405c0-1.156-1.028-2.102-2.284-2.102h-9.135c-1.256 0-2.284.946-2.284 2.102zm22.838-11.979V3.478c0-1.156-1.028-2.102-2.284-2.102h-2.284c-1.256 0-2.283.946-2.283 2.102V6.84L22.537.536c-.868-.715-2.193-.715-3.06 0L.382 16.36c-.776.63-.297 1.828.754 1.828h2.992a2.33 2.33 0 001.53-.546L21.006 4.928l15.325 12.714c.434.357.982.546 1.53.546h2.992c1.05 0 1.553-1.198.753-1.828l-4.613-3.846z" fill="#fff"/></svg>