<svg width="17" height="17" fill="none" xmlns="http://www.w3.org/2000/svg"><path d="M16.207 12.467c-.636-1.145-2.275-2.521-2.952-3.12a.44.44 0 01-.037-.63c1.292-1.387 2.325-2.982 2.68-3.946a.656.656 0 00-.625-.875h-1.329c-.438 0-.695.157-.817.407-1.073 2.2-1.994 3.152-2.639 3.709a.56.56 0 01-.923-.421V4.658a.738.738 0 00-.742-.735l-2.428-.027a.368.368 0 00-.297.588l.4.576c.152.2.233.442.233.69L6.73 8.344c0 .45-.546.67-.87.355C4.762 7.63 3.81 5.447 3.466 4.404a.74.74 0 00-.703-.507l-1.309-.003a.739.739 0 00-.717.934c1.196 4.2 3.651 8.195 8.026 8.628a.737.737 0 00.803-.735v-1.362a.73.73 0 01.7-.736h.041c1.158 0 2.453 1.684 2.907 2.472.13.226.374.364.637.364h1.761a.67.67 0 00.596-.99z" fill="#DB3022"/></svg>