<svg width="50" height="50" fill="none" xmlns="http://www.w3.org/2000/svg"><path d="M43.64 17.302a13.604 13.604 0 00-.873-4.617A9.604 9.604 0 0037.28 7.2a13.763 13.763 0 00-4.554-.875c-2.004-.09-2.64-.115-7.727-.115-5.088 0-5.74 0-7.73.115a13.762 13.762 0 00-4.551.875 9.597 9.597 0 00-5.486 5.485 13.655 13.655 0 00-.873 4.552c-.09 2.007-.116 2.642-.116 7.73 0 5.087 0 5.737.116 7.729a13.74 13.74 0 00.873 4.556 9.605 9.605 0 005.488 5.483c1.453.57 2.992.886 4.552.938 2.006.09 2.642.116 7.729.116 5.088 0 5.74 0 7.73-.116a13.728 13.728 0 004.553-.873 9.615 9.615 0 005.486-5.485 13.72 13.72 0 00.873-4.557c.09-2.004.116-2.64.116-7.729-.004-5.087-.004-5.733-.12-7.727zM24.986 34.587a9.63 9.63 0 01-9.63-9.63 9.63 9.63 0 0116.44-6.811 9.631 9.631 0 01-6.81 16.441zm10.015-17.373a2.243 2.243 0 01-2.075-3.104 2.245 2.245 0 112.075 3.105z" fill="#5E86E7"/><path d="M24.988 31.212a6.256 6.256 0 100-12.512 6.256 6.256 0 000 12.512z" fill="#5E86E7"/></svg>