<svg width="48" height="48" fill="none" xmlns="http://www.w3.org/2000/svg"><g opacity=".66" fill="#fff"><path d="M24 0c13.275 0 24 10.713 24 24S37.287 48 24 48 0 37.287 0 24 10.725 0 24 0zm0 44.791A20.746 20.746 0 0044.791 24 20.746 20.746 0 0024 3.209a20.746 20.746 0 00-20.791 20.79A20.746 20.746 0 0024 44.792z"/><path d="M29.27 23.841l-9.272-9.273c-.635-.646-.635-1.61 0-2.245.634-.634 1.598-.634 2.245 0L32.638 22.72c.318.317.476.634.476 1.123 0 .475-.158.805-.476 1.122L22.084 35.518c-.317.318-.634.476-1.122.476-.317 0-.806-.158-.964-.634-.635-.635-.635-1.599 0-2.245l9.273-9.274z"/></g></svg>