<svg width="168" height="60" fill="none" xmlns="http://www.w3.org/2000/svg"><path d="M110.77 19.079c-1.203-1.424-3.29-2.136-6.18-2.136-5.297 0-8.829 2.61-9.631 7.119l-2.489 13.92c-.4 2.135 0 3.875 1.044 5.14 1.204 1.425 3.29 2.136 6.18 2.136 5.298 0 8.829-2.61 9.632-7.118l2.488-13.92c.321-2.136 0-3.876-1.044-5.141zm-10.434 21.276c-.722 0-1.204-.159-1.445-.475-.24-.316-.32-.79-.24-1.582l2.568-14.395c.241-1.502 1.044-2.214 2.649-2.214.722 0 1.204.158 1.445.474.24.317.321.791.24 1.582l-2.568 14.395c-.241 1.582-1.043 2.215-2.649 2.215zm34.835-23.175h-6.502l-7.705 10.045 2.809-15.185h-6.501l-5.779 32.901h6.261l1.525-8.462 1.364-1.582 2.97 10.044h6.421l-4.655-15.185 9.792-12.576zm15.811 1.899c-1.204-1.424-3.29-2.136-6.18-2.136-5.297 0-8.829 2.61-9.631 7.119l-2.489 13.92c-.401 2.135 0 3.875 1.044 5.14 1.204 1.425 3.291 2.136 6.18 2.136 5.297 0 8.829-2.61 9.632-7.118l2.488-13.92c.401-2.136 0-3.876-1.044-5.141zm-10.354 21.276c-.722 0-1.203-.159-1.444-.475-.241-.316-.321-.79-.241-1.582l2.568-14.395c.241-1.502 1.044-2.214 2.649-2.214.722 0 1.204.158 1.445.474.241.317.321.791.241 1.582l-2.569 14.395c-.321 1.582-1.124 2.215-2.649 2.215zm18.301-.238l4.976-28.077h-6.501l-5.699 32.901h14.849l.883-4.824h-8.508zm-67.422-26.1c-1.284-1.661-3.451-2.531-6.42-2.531-5.62 0-9.231 3.005-10.114 8.542-.883 5.22 2.248 8.146 4.736 10.519 2.087 1.977 3.933 3.717 3.531 6.406-.32 1.82-1.123 2.61-2.809 2.61-.803 0-1.284-.158-1.605-.553-.321-.396-.321-1.029-.241-1.899l.401-2.372.08-.554h-6.501l-.08.395-.321 2.057c-.401 2.61-.08 4.666 1.124 6.169 1.284 1.66 3.531 2.53 6.581 2.53 5.699 0 9.391-3.005 10.274-8.54.883-5.221-2.248-8.147-4.736-10.52-2.087-1.977-3.932-3.717-3.531-6.407.32-1.819 1.123-2.689 2.729-2.689.722 0 1.204.159 1.525.475.32.395.32 1.028.24 1.977l-.24 1.424-.08.553h6.501l.08-.395.16-1.107c.241-2.452-.08-4.587-1.284-6.09zM85.1 52.607h.883l-.16.949c.32-.633 1.043-1.107 1.605-1.107.16 0 .24 0 .401.079l-.24 1.265c-.16-.079-.241-.079-.402-.079-.883 0-1.444.633-1.685 1.977l-.562 3.085h-1.043l1.203-6.17zm5.78.713c.642-.633 1.364-.95 2.006-.95 1.365 0 1.686 1.028 1.525 2.057l-.642 3.163c-.08.396-.16.791-.16 1.108h-.803c0-.317.08-.633.16-.95-.562.792-1.123 1.108-1.846 1.108-.883 0-1.445-.633-1.204-1.82.321-1.581 1.525-2.135 2.89-2.135h.642l.08-.237c.16-.633-.08-1.345-.803-1.345-.642 0-1.043.396-1.444.712l-.402-.712zm2.006 2.451c-.803 0-1.846.158-2.087 1.187-.16.712.16 1.028.803 1.028.963 0 1.525-.95 1.685-1.82l.08-.395h-.481zm8.507-1.503c-.24-.475-.561-.712-1.043-.712-.963 0-1.605 1.028-1.846 2.215-.24 1.186.16 2.135 1.043 2.135.482 0 .883-.237 1.285-.712l.481.87c-.562.712-1.284.95-1.926.95-1.445 0-2.087-1.345-1.766-3.243.401-1.898 1.605-3.243 3.05-3.243.642 0 1.204.316 1.605.949l-.883.79zm4.094 1.819c-.24 1.107.402 1.82 1.204 1.82.562 0 .963-.396 1.445-.95l.562.712c-.642.87-1.365 1.266-2.247 1.266-1.445 0-2.087-1.424-1.686-3.243.321-1.82 1.605-3.243 2.97-3.243 1.605 0 1.926 1.66 1.605 3.243l-.08.395h-3.773zm2.89-.949c.16-1.028-.08-1.82-.963-1.82s-1.606.95-1.766 1.82h2.729zm12.199-1.503h-1.204l-.561 2.769c-.161.711-.241 1.423.401 1.423.241 0 .481 0 .642-.158l-.241 1.107c-.241.159-.642.238-.802.238-1.365 0-1.124-1.108-.964-2.136l.643-3.243h-.964l.161-1.028h.963l.321-1.74h.883l-.321 1.74h1.204l-.161 1.028zm3.773-1.028h.883l-.161.949c.322-.633 1.044-1.107 1.606-1.107.16 0 .241 0 .401.079l-.241 1.265c-.16-.079-.241-.079-.401-.079-.883 0-1.445.633-1.686 1.977l-.561 3.085h-.883l1.043-6.17zm5.779.713c.643-.633 1.365-.95 2.007-.95 1.365 0 1.686 1.028 1.525 2.057l-.642 3.163c-.08.396-.161.791-.161 1.108h-.802c0-.317.08-.633.16-.95-.562.792-1.123 1.108-1.846 1.108-.883 0-1.444-.633-1.204-1.82.321-1.581 1.525-2.135 2.89-2.135h.642l.08-.237c.161-.633-.08-1.345-.802-1.345-.643 0-1.044.396-1.445.712l-.402-.712zm2.007 2.451c-.803 0-1.846.158-2.087 1.187-.16.712.161 1.028.803 1.028.963 0 1.525-.95 1.685-1.82l.081-.395h-.482zm8.507-1.503c-.24-.475-.561-.712-1.043-.712-.963 0-1.605 1.028-1.846 2.215-.241 1.186.16 2.135 1.043 2.135.482 0 .883-.237 1.285-.712l.481.87c-.562.712-1.284.95-1.926.95-1.445 0-2.087-1.345-1.766-3.243.401-1.898 1.605-3.243 3.05-3.243.642 0 1.204.316 1.605.949l-.883.79zm4.816-5.378h.883l-1.204 6.406 2.488-2.69h1.204l-2.648 2.769 1.685 3.4h-1.204l-1.525-3.242-.642 3.243h-.883l1.846-9.886zM54 27C54 12.114 41.87 0 26.963 0h-1.388c-.22 0-.365 0-.511.073-.293 0-.512 0-.804.073-.22 0-.439.073-.73.073-.22 0-.366.073-.585.073-.293.073-.512.073-.804.146-.146 0-.293.073-.439.073l-.877.219c-.146 0-.292 0-.365.073-.292.073-.658.146-.95.292-.073 0-.146.073-.22.073a4.23 4.23 0 00-1.022.364c-.073 0-.073 0-.146.073l-1.096.438h-.073A26.783 26.783 0 000 24.811c1.023-.22 10.522-2.043 16.003-4.379 10.23-4.378 14.614-5.837 16.075-5.837h4.385C28.498 18.243 25.502 24.08.365 31.962c.073.511.22 1.095.366 1.606.804-.146 7.818-1.752 17.464-6.568 9.938-4.962 18.998-12.405 20.46-12.405 0 0 4.823 0 5.115 1.46 0 0-3.654 1.459-9.5 5.837-2.922 2.19-17.537 14.595-30.397 19.119.365.584.73 1.167 1.169 1.751 1.973-.803 7.819-3.357 16.076-9.194 10.23-7.298 20.46-16.784 23.383-16.784 4.384 0 5.115 3.648 5.115 3.648-7.746-2.772-7.38 9.925-38.51 28.387a26.08 26.08 0 008.331 4.086c.073 0 .146 0 .146.073l.877.22c.073 0 .146 0 .22.072.438.073.876.22 1.388.292.219 0 .365.073.584.073.22 0 .366.073.585.073.219 0 .438.073.73.073.147 0 .366 0 .512.073.292 0 .512.073.804.073h1.68C41.87 54 54 41.887 54 27z" fill="#fff"/></svg>