<svg width="23" height="18" fill="none" xmlns="http://www.w3.org/2000/svg"><g clip-path="url(#clip0_381:8)" fill="#DB3022"><path d="M22.228 3.576L15.498 9l6.73 5.424c.122-.206.196-.434.196-.678V4.254c0-.244-.074-.472-.196-.678zm-1.754-.904H2.184c-.301 0-.582.06-.836.158L9.95 9.772c.76.617 1.997.617 2.758 0L21.31 2.83a2.304 2.304 0 00-.836-.158zM.428 3.576a1.328 1.328 0 00-.196.678v9.492c0 .244.074.472.196.678L7.158 9 .428 3.576z"/><path d="M14.58 9.746l-.953.772c-1.267 1.028-3.33 1.028-4.597 0l-.952-.772-6.73 5.423c.254.1.535.159.835.159h18.291c.3 0 .581-.06.836-.159l-6.73-5.423z"/></g><defs><clipPath id="clip0_381:8"><path fill="#fff" transform="translate(.232)" d="M0 0h22.192v18H0z"/></clipPath></defs></svg>