<svg width="46" height="46" fill="none" xmlns="http://www.w3.org/2000/svg"><path d="M10.707 19.576a1.744 1.744 0 00-.64-.69 2.999 2.999 0 00-1.018-.374 8.331 8.331 0 00-1.382-.11l-2.446.002a.613.613 0 00-.563.448l-1.645 7.167c-.06.242.1.445.354.445h1.17a.6.6 0 00.563-.445l.402-1.74a.6.6 0 01.56-.445h.336c1.432-.002 2.541-.294 3.338-.88.801-.587 1.196-1.363 1.196-2.323 0-.42-.07-.774-.225-1.055zM8.18 21.917c-.354.26-.846.39-1.48.39h-.287c-.256 0-.412-.202-.356-.448l.352-1.522a.593.593 0 01.558-.444l.384-.003c.448 0 .79.078 1.018.228.226.149.34.385.338.698.007.476-.175.842-.527 1.101zm8.175-1.317c-.442-.249-1.14-.373-2.093-.373-.472 0-.942.036-1.417.11-.35.053-.385.064-.6.11-.446.098-.516.542-.516.542l-.143.59c-.081.376.135.361.226.33.194-.058.303-.118.7-.207.38-.086.78-.15 1.097-.146.468 0 .827.049 1.065.15a.538.538 0 01.354.532l-.02.166-.17.104a19.53 19.53 0 00-1.727.187c-.57.08-1.07.219-1.485.409-.446.196-.777.46-1.008.795-.224.337-.336.745-.336 1.225 0 .451.162.824.477 1.112.316.283.734.421 1.234.421.317-.001.562-.026.736-.068l.567-.195.48-.266.442-.292.006.009-.044.187-.003.008v.002c-.048.228.09.416.313.438l.005.005h1.088l.014-.007a.606.606 0 00.505-.438l.853-3.696.045-.301.02-.283c.004-.524-.222-.912-.665-1.16zm-1.889 4.156l-.182.24-.46.239a1.64 1.64 0 01-.613.132c-.289 0-.515-.042-.667-.127l-.226-.44c0-.238.054-.426.171-.571l.496-.338c.213-.071.472-.132.772-.174.268-.033.797-.094.866-.095l.081.142c-.016.081-.166.709-.238.992zm23.161-4.151c-.444-.249-1.141-.374-2.092-.374-.472 0-.943.037-1.416.113-.352.05-.386.062-.603.108-.445.096-.514.542-.514.542l-.143.589c-.08.376.131.36.23.33.196-.058.3-.115.695-.207.377-.085.781-.149 1.1-.147.466 0 .824.05 1.062.151.237.102.353.28.353.531l-.018.165-.167.107a18.38 18.38 0 00-1.729.186 5.36 5.36 0 00-1.486.408c-.444.197-.78.461-1.008.797-.226.337-.336.745-.336 1.22 0 .455.16.827.48 1.114.317.282.731.424 1.23.424.316-.003.56-.024.735-.07l.566-.192.484-.266.439-.295.008.01-.04.189-.005.003.002.003c-.053.229.086.418.311.439l.002.004h1.087l.018-.006a.6.6 0 00.498-.442l.856-3.69.045-.304.025-.283c.001-.522-.222-.908-.669-1.157zm-1.884 4.156l-.19.244-.457.236a1.659 1.659 0 01-.61.132c-.297 0-.517-.043-.666-.128l-.228-.438c0-.238.055-.425.167-.573a1.2 1.2 0 01.502-.337c.21-.071.469-.13.77-.173.267-.033.794-.096.862-.096l.083.142c-.012.081-.163.707-.233.991zm-3.767-5.159a1.812 1.812 0 00-.645-.693 2.876 2.876 0 00-1.018-.373 8.056 8.056 0 00-1.377-.108l-2.45.002a.608.608 0 00-.558.445l-1.647 7.17c-.06.244.104.445.353.445l1.173-.002a.607.607 0 00.563-.443l.397-1.741a.607.607 0 01.563-.445h.335c1.434 0 2.545-.295 3.345-.88.791-.59 1.191-1.364 1.191-2.325-.004-.42-.077-.773-.225-1.052zm-2.526 2.345c-.353.254-.846.384-1.477.384h-.292a.35.35 0 01-.358-.446l.355-1.52a.596.596 0 01.56-.444l.379-.002c.45.002.788.076 1.018.226.23.15.338.386.34.698.003.476-.173.843-.525 1.104zm12.569-3.015c.053-.244-.1-.443-.352-.44h-1.049c-.215 0-.409.16-.503.356l-.058.09-.053.232-1.466 6.666-.048.205.001.005c-.048.219.087.384.295.416l.018.025h1.089c.213 0 .414-.162.505-.362l.056-.085 1.568-7.107h-.003zm-17.706 1.384c-.277.003-1.404 0-1.404 0-.252 0-.576.204-.737.447 0 0-1.677 2.878-1.84 3.167l-.194-.002-.522-3.145c-.058-.248-.317-.46-.638-.46l-1.05.002c-.252 0-.407.202-.35.447 0 0 .797 4.534.956 5.601.074.589-.01.694-.01.694l-1.037 1.806c-.153.246-.07.447.181.447l1.213-.002c.253 0 .585-.199.735-.445l4.666-7.893c0 .001.448-.673.031-.664z" fill="#DB3022"/><path d="M43.366 6.9H2.634A2.636 2.636 0 000 9.534v26.932A2.636 2.636 0 002.634 39.1h40.732A2.636 2.636 0 0046 36.466V9.531c0-1.45-1.18-2.631-2.634-2.631zm-.068 29.495l-40.596.068L2.634 9.6l40.664-.068v26.864z" fill="#DB3022"/></svg>