<svg width="43" height="43" fill="none" xmlns="http://www.w3.org/2000/svg"><path fill-rule="evenodd" clip-rule="evenodd" d="M43 21.5C43 33.373 33.373 43 21.5 43S0 33.373 0 21.5 9.627 0 21.5 0 43 9.627 43 21.5zm-20.73-5.628c-2.09.87-6.27 2.67-12.538 5.4-1.017.405-1.551.801-1.6 1.188-.082.656.739.914 1.853 1.264.152.048.31.096.471.15 1.099.357 2.575.774 3.342.79.697.014 1.474-.272 2.332-.86 5.855-3.954 8.878-5.952 9.068-5.995.134-.03.32-.07.446.043.126.111.113.323.1.38-.082.346-3.296 3.336-4.962 4.884-.52.482-.887.824-.963.903-.168.174-.34.34-.505.5-1.021.982-1.784 1.72.043 2.924.878.579 1.58 1.057 2.281 1.534a158.77 158.77 0 002.517 1.69c.251.164.491.334.726.5.89.637 1.691 1.207 2.68 1.117.573-.054 1.168-.593 1.47-2.204.71-3.809 2.112-12.058 2.436-15.458.02-.283.008-.566-.036-.846a.907.907 0 00-.308-.582c-.256-.21-.654-.255-.833-.251-.808.014-2.048.446-8.02 2.93z" fill="#5E86E7"/></svg>