<svg width="23" height="18" fill="none" xmlns="http://www.w3.org/2000/svg"><g clip-path="url(#clip0_381:21)" fill="#DB3022"><path d="M17.104 11.907c-.725-.58-1.63-.58-2.35 0-.55.442-1.1.884-1.64 1.334-.148.123-.273.15-.453.067-.355-.157-.734-.285-1.076-.457-1.593-.813-2.927-1.858-4.11-3.034-.586-.584-1.108-1.21-1.473-1.914-.073-.142-.06-.236.084-.352.55-.43 1.085-.873 1.625-1.315.753-.614.753-1.333-.005-1.951-.43-.352-.859-.697-1.288-1.049-.443-.36-.882-.723-1.33-1.079-.725-.573-1.63-.573-2.35.004-.555.442-1.086.895-1.649 1.33-.522.4-.785.891-.84 1.464-.088.933.193 1.813.59 2.671.813 1.775 2.05 3.352 3.552 4.798 2.027 1.955 4.447 3.502 7.278 4.619 1.274.501 2.595.887 4.031.95.988.046 1.847-.156 2.535-.782.471-.427 1.002-.816 1.501-1.225.739-.607.744-1.34.01-1.94-.878-.715-1.76-1.427-2.642-2.139zm-.881-2.985l1.704-.236c-.268-1.27-1.007-2.42-2.13-3.334-1.186-.962-2.687-1.569-4.34-1.756l-.24 1.39c1.279.145 2.443.614 3.362 1.359.868.704 1.436 1.596 1.644 2.577zm2.663-6.008C16.92 1.318 14.43.311 11.682 0l-.24 1.39c2.374.27 4.526 1.142 6.225 2.517 1.612 1.307 2.67 2.959 3.053 4.775l1.704-.236c-.448-2.105-1.672-4.015-3.538-5.532z"/></g><defs><clipPath id="clip0_381:21"><path fill="#fff" transform="translate(.232)" d="M0 0h22.192v18H0z"/></clipPath></defs></svg>