<svg width="50" height="34" fill="none" xmlns="http://www.w3.org/2000/svg"><path d="M46.255.001H3.745C1.676.001 0 1.741 0 3.887v26.227c0 2.147 1.676 3.887 3.745 3.887h42.51C48.323 34 50 32.26 50 30.114V3.887C50 1.741 48.323.001 46.255.001z" fill="#41479B"/><path d="M49.948 3.244C49.653 1.404 48.112 0 46.255 0h-.974L29.31 10.86V0h-8.622v10.86L4.72 0h-.974C1.887 0 .347 1.404.052 3.244l13.65 9.282H0v8.948h13.702L.052 30.756C.347 32.596 1.887 34 3.745 34h.974l15.97-10.86V34h8.621V23.14L45.28 34h.975c1.857 0 3.398-1.404 3.693-3.244l-13.65-9.282H50v-8.948H36.298l13.65-9.282z" fill="#F5F5F5"/><path d="M27.586.001h-5.172v14.316H0v5.368h22.414v14.316h5.172V19.685H50v-5.368H27.586V0z" fill="#FF4B55"/><path d="M33.827 21.475H30.66l17.648 11.89a3.85 3.85 0 001.2-1.326L33.827 21.475zm-17.147 0h3.168L2.2 33.365A3.848 3.848 0 011 32.038l15.68-10.564zM.396 2.15L15.8 12.526h3.166L1.512.767A3.87 3.87 0 00.396 2.15zm32.082 10.376L49.083 1.34A3.751 3.751 0 0047.55.24L29.312 12.525h3.166z" fill="#FF4B55"/><rect x="1" y="1" width="48" height="32" rx="2.8" stroke="#000" stroke-opacity=".5" stroke-width="2"/></svg>