<svg width="43" height="43" fill="none" xmlns="http://www.w3.org/2000/svg"><path d="M21.5 0C9.626 0 0 9.592 0 21.424c0 11.832 9.626 21.424 21.5 21.424S43 33.256 43 21.424C43 9.592 33.374 0 21.5 0zm8.268 24.171s1.902 1.87 2.37 2.738c.014.018.02.036.025.045.19.319.235.567.14.752-.156.308-.693.46-.877.473h-3.36c-.232 0-.72-.06-1.312-.466-.455-.317-.902-.837-1.34-1.344-.65-.754-1.215-1.406-1.784-1.406a.686.686 0 00-.213.034c-.43.138-.98.75-.98 2.379 0 .508-.404.8-.688.8H20.21c-.524 0-3.254-.182-5.673-2.724-2.96-3.113-5.626-9.357-5.648-9.415-.168-.404.18-.62.558-.62h3.393c.452 0 .6.274.703.517.12.283.564 1.41 1.292 2.678 1.18 2.067 1.904 2.906 2.484 2.906a.674.674 0 00.311-.08c.757-.42.616-3.11.582-3.667 0-.105-.002-1.203-.39-1.73-.277-.382-.75-.527-1.036-.58a1.23 1.23 0 01.445-.377c.52-.26 1.456-.297 2.385-.297h.518c1.008.013 1.267.078 1.633.17.739.176.754.651.69 2.278-.02.462-.041.984-.041 1.6 0 .134-.007.277-.007.429-.022.828-.049 1.767.538 2.153a.484.484 0 00.255.074c.204 0 .817 0 2.48-2.841.512-.915.957-1.865 1.332-2.843.033-.058.132-.237.248-.306a.6.6 0 01.278-.065h3.989c.434 0 .732.065.788.232.099.266-.018 1.076-1.838 3.533l-.813 1.07c-1.651 2.155-1.651 2.264.102 3.9z" fill="#5E86E7"/></svg>