<svg width="315" height="55" fill="none" xmlns="http://www.w3.org/2000/svg"><path d="M52.735 39.974l-1.388-1.387V32.2a23.817 23.817 0 00-5.988-15.805A23.848 23.848 0 0033.32 9.07a6.364 6.364 0 00.584-2.666A6.412 6.412 0 0027.5 0a6.412 6.412 0 00-6.405 6.405c0 .95.21 1.853.584 2.666A23.847 23.847 0 009.64 16.396 23.817 23.817 0 003.652 32.2v6.386l-1.387 1.387A7.684 7.684 0 000 45.443V55h55v-9.557a7.684 7.684 0 00-2.265-5.47zM5.029 41.767h44.942l.485.485a4.48 4.48 0 011.319 3.08H3.225a4.48 4.48 0 011.32-3.08l.484-.485zM27.5 3.223a3.186 3.186 0 013.182 3.182A3.186 3.186 0 0127.5 9.587a3.186 3.186 0 01-3.182-3.182A3.186 3.186 0 0127.5 3.223zm-15.446 15.31a20.604 20.604 0 0112.079-6.683 6.36 6.36 0 003.367.96 6.366 6.366 0 003.367-.96 20.604 20.604 0 0112.079 6.683A20.597 20.597 0 0148.125 32.2v6.344h-4.538V27.308h-3.223v11.237h-4.213V25.04h-3.223v13.503h-3.817v-7.12H25.89v7.12h-3.817V25.041H18.85v13.503h-4.213V27.308h-3.223v11.237H6.875V32.2a20.6 20.6 0 015.179-13.669zM3.223 51.776v-3.223h48.554v3.223H3.223z" fill="#000"/><path d="M6.667 31.944c0-11.505 9.327-20.833 20.833-20.833 11.506 0 20.833 9.328 20.833 20.833v6.945H6.667v-6.945z" fill="#EEF6FF"/><path d="M30.352 22.6L27.664 31h-3.036l-1.356-4.488L21.844 31h-3.036l-2.688-8.4h2.916l1.464 4.776 1.548-4.776h2.604l1.464 4.836 1.548-4.836h2.688zm4.844 8.592c-.888 0-1.688-.184-2.4-.552a4.27 4.27 0 01-1.68-1.56c-.4-.672-.6-1.432-.6-2.28 0-.848.2-1.604.6-2.268a4.158 4.158 0 011.68-1.56c.712-.376 1.512-.564 2.4-.564.816 0 1.544.144 2.184.432.64.288 1.168.704 1.584 1.248l-1.788 1.596c-.52-.656-1.132-.984-1.836-.984-.592 0-1.068.192-1.428.576-.36.376-.54.884-.54 1.524s.18 1.152.54 1.536c.36.376.836.564 1.428.564.704 0 1.316-.328 1.836-.984l1.788 1.596c-.416.544-.944.96-1.584 1.248-.64.288-1.368.432-2.184.432zM95.704 19.2L90.328 36h-6.072l-2.712-8.976L78.688 36h-6.072L67.24 19.2h5.832L76 28.752l3.096-9.552h5.208l2.928 9.672 3.096-9.672h5.376zm2.759 3.672h5.424V36h-5.424V22.872zm2.712-1.056c-.976 0-1.769-.256-2.376-.768-.593-.528-.889-1.192-.889-1.992s.297-1.456.889-1.968c.607-.528 1.4-.792 2.376-.792.992 0 1.784.248 2.376.744.592.496.888 1.136.888 1.92 0 .832-.296 1.52-.888 2.064-.592.528-1.384.792-2.376.792zm15.436.816c1.616 0 2.912.488 3.888 1.464.992.976 1.488 2.448 1.488 4.416V36h-5.424v-6.552c0-1.504-.536-2.256-1.608-2.256-.608 0-1.104.216-1.488.648-.368.416-.552 1.08-.552 1.992V36h-5.424V22.872h5.16v1.296a5.005 5.005 0 011.776-1.152 6.085 6.085 0 012.184-.384zm18.603 12.912c-.816.464-1.928.696-3.336.696-1.84 0-3.256-.44-4.248-1.32-.992-.896-1.488-2.232-1.488-4.008v-3.36h-1.8v-3.96h1.8V19.92h5.424v3.672h2.688v3.96h-2.688v3.312c0 .4.104.712.312.936.208.224.48.336.816.336.464 0 .872-.12 1.224-.36l1.296 3.768zm16.184-6.12c0 .08-.024.504-.072 1.272h-9.12c.192.496.512.88.96 1.152.448.256 1.008.384 1.68.384.576 0 1.056-.072 1.44-.216.4-.144.832-.392 1.296-.744l2.832 2.856c-1.28 1.408-3.192 2.112-5.736 2.112-1.584 0-2.976-.288-4.176-.864-1.2-.592-2.128-1.408-2.784-2.448-.656-1.04-.984-2.208-.984-3.504 0-1.312.32-2.48.96-3.504a6.72 6.72 0 012.664-2.424c1.136-.576 2.408-.864 3.816-.864 1.328 0 2.536.264 3.624.792a6.147 6.147 0 012.616 2.328c.656 1.024.984 2.248.984 3.672zm-7.176-3.096c-.56 0-1.024.152-1.392.456-.368.304-.608.736-.72 1.296h4.224c-.112-.544-.352-.968-.72-1.272-.368-.32-.832-.48-1.392-.48zm15.247-2.04c.96-1.104 2.376-1.656 4.248-1.656v4.8a8.226 8.226 0 00-1.2-.096c-1.856 0-2.784.944-2.784 2.832V36h-5.424V22.872h5.16v1.416zm24.237 12.096c-1.776 0-3.376-.368-4.8-1.104-1.424-.752-2.544-1.792-3.36-3.12-.8-1.344-1.2-2.864-1.2-4.56 0-1.696.4-3.208 1.2-4.536a8.317 8.317 0 013.36-3.12c1.424-.752 3.024-1.128 4.8-1.128 1.632 0 3.088.288 4.368.864a8.107 8.107 0 013.168 2.496l-3.576 3.192c-1.04-1.312-2.264-1.968-3.672-1.968-1.184 0-2.136.384-2.856 1.152-.72.752-1.08 1.768-1.08 3.048s.36 2.304 1.08 3.072c.72.752 1.672 1.128 2.856 1.128 1.408 0 2.632-.656 3.672-1.968l3.576 3.192a8.107 8.107 0 01-3.168 2.496c-1.28.576-2.736.864-4.368.864zm10.203-18.192h5.424V36h-5.424V18.192zm15.965 18.048c-1.456 0-2.768-.288-3.936-.864-1.152-.592-2.056-1.4-2.712-2.424-.656-1.04-.984-2.216-.984-3.528 0-1.312.328-2.48.984-3.504.656-1.04 1.56-1.848 2.712-2.424 1.168-.576 2.48-.864 3.936-.864 1.472 0 2.784.288 3.936.864 1.168.576 2.072 1.384 2.712 2.424.656 1.024.984 2.192.984 3.504 0 1.312-.328 2.488-.984 3.528-.64 1.024-1.544 1.832-2.712 2.424-1.152.576-2.464.864-3.936.864zm0-4.224c.624 0 1.136-.224 1.536-.672.4-.464.6-1.104.6-1.92 0-.816-.2-1.448-.6-1.896-.4-.448-.912-.672-1.536-.672s-1.136.224-1.536.672c-.4.448-.6 1.08-.6 1.896 0 .816.2 1.456.6 1.92.4.448.912.672 1.536.672zm20.201 3.528c-.816.464-1.928.696-3.336.696-1.84 0-3.256-.44-4.248-1.32-.992-.896-1.488-2.232-1.488-4.008v-3.36h-1.8v-3.96h1.8V19.92h5.424v3.672h2.688v3.96h-2.688v3.312c0 .4.104.712.312.936.208.224.48.336.816.336.464 0 .872-.12 1.224-.36l1.296 3.768zm11.687-12.912c1.616 0 2.912.488 3.888 1.464.992.976 1.488 2.448 1.488 4.416V36h-5.424v-6.552c0-1.504-.536-2.256-1.608-2.256-.608 0-1.104.216-1.488.648-.368.416-.552 1.08-.552 1.992V36h-5.424V18.192h5.424v5.736c1.008-.864 2.24-1.296 3.696-1.296zm23.134 6.792c0 .08-.024.504-.072 1.272h-9.12c.192.496.512.88.96 1.152.448.256 1.008.384 1.68.384.576 0 1.056-.072 1.44-.216.4-.144.832-.392 1.296-.744l2.832 2.856c-1.28 1.408-3.192 2.112-5.736 2.112-1.584 0-2.976-.288-4.176-.864-1.2-.592-2.128-1.408-2.784-2.448-.656-1.04-.984-2.208-.984-3.504 0-1.312.32-2.48.96-3.504a6.72 6.72 0 012.664-2.424c1.136-.576 2.408-.864 3.816-.864 1.328 0 2.536.264 3.624.792a6.147 6.147 0 012.616 2.328c.656 1.024.984 2.248.984 3.672zm-7.176-3.096c-.56 0-1.024.152-1.392.456-.368.304-.608.736-.72 1.296h4.224c-.112-.544-.352-.968-.72-1.272-.368-.32-.832-.48-1.392-.48zm15.224 9.912c-1.12 0-2.224-.12-3.312-.36-1.088-.24-1.968-.552-2.64-.936l1.488-3.576c.608.368 1.328.656 2.16.864a9.98 9.98 0 002.424.312c.624 0 1.056-.048 1.296-.144.256-.112.384-.272.384-.48 0-.208-.16-.352-.48-.432-.304-.08-.808-.16-1.512-.24-1.072-.128-1.984-.288-2.736-.48a4.465 4.465 0 01-1.992-1.176c-.56-.576-.84-1.4-.84-2.472 0-.848.256-1.608.768-2.28.512-.672 1.272-1.208 2.28-1.608 1.024-.4 2.248-.6 3.672-.6.992 0 1.96.096 2.904.288.96.176 1.776.44 2.448.792l-1.488 3.576c-1.152-.64-2.416-.96-3.792-.96-1.184 0-1.776.208-1.776.624 0 .208.16.36.48.456.32.08.824.16 1.512.24 1.072.128 1.976.296 2.712.504.752.208 1.408.6 1.968 1.176.576.576.864 1.4.864 2.472 0 .816-.256 1.56-.768 2.232-.512.672-1.28 1.208-2.304 1.608-1.024.4-2.264.6-3.72.6z" fill="#000"/></svg>