<svg width="309" height="56" fill="none" xmlns="http://www.w3.org/2000/svg"><mask id="a" style="mask-type:alpha" maskUnits="userSpaceOnUse" x="0" y="0" width="309" height="56"><g clip-path="url(#clip0)"><path d="M51.73 40.722l-1.36-1.387V32.95c0-5.83-2.087-11.444-5.875-15.805-3.146-3.62-7.267-6.162-11.808-7.325a6.468 6.468 0 00.572-2.666c0-3.531-2.818-6.404-6.283-6.404-3.464 0-6.283 2.873-6.283 6.404 0 .951.206 1.854.573 2.666-4.541 1.163-8.663 3.705-11.808 7.325-3.789 4.361-5.875 9.974-5.875 15.805v6.386l-1.36 1.387A7.76 7.76 0 000 46.192v9.556h53.952v-9.557a7.76 7.76 0 00-2.222-5.469zM4.933 42.516H49.02l.476.485a4.522 4.522 0 011.294 3.08H3.163A4.522 4.522 0 014.457 43l.476-.485zM26.976 3.97c1.722 0 3.122 1.428 3.122 3.182 0 1.755-1.4 3.183-3.122 3.183-1.721 0-3.121-1.428-3.121-3.183 0-1.754 1.4-3.182 3.121-3.182zM11.824 19.28c3.095-3.562 7.281-5.917 11.85-6.682a6.156 6.156 0 006.605 0c4.568.765 8.754 3.12 11.849 6.682 3.276 3.771 5.08 8.625 5.08 13.668v6.344h-4.452V28.057h-3.16v11.236h-4.134V25.79h-3.16v13.503h-3.745v-7.12h-3.161v7.12H21.65V25.79h-3.16v13.503h-4.133V28.057h-3.161v11.236H6.744V32.95c0-5.043 1.804-9.897 5.08-13.668zM3.161 52.526v-3.223h47.63v3.223H3.161z" fill="#000"/><path d="M6.54 32.693c0-11.506 9.15-20.833 20.436-20.833 11.287 0 20.437 9.327 20.437 20.833v6.944H6.54v-6.944z" fill="#EEF6FF"/><path d="M30.047 23.349l-2.688 8.4h-3.036l-1.356-4.488-1.428 4.488h-3.036l-2.688-8.4h2.916l1.464 4.776 1.548-4.776h2.604l1.464 4.835 1.548-4.835h2.688zm4.844 8.591c-.888 0-1.688-.184-2.4-.552a4.27 4.27 0 01-1.68-1.56c-.4-.671-.6-1.431-.6-2.28 0-.847.2-1.603.6-2.267a4.158 4.158 0 011.68-1.56c.712-.377 1.512-.564 2.4-.564.816 0 1.544.143 2.184.431.64.288 1.168.704 1.584 1.248l-1.788 1.597c-.52-.657-1.132-.985-1.836-.985-.592 0-1.068.192-1.428.576-.36.377-.54.884-.54 1.524s.18 1.153.54 1.537c.36.375.836.563 1.428.563.704 0 1.316-.328 1.836-.983l1.788 1.596c-.416.544-.944.96-1.584 1.248-.64.288-1.368.431-2.184.431z" fill="#000"/></g><path d="M94.428 19.948l-5.376 16.8H82.98l-2.712-8.975-2.856 8.976H71.34l-5.376-16.8h5.832l2.928 9.551 3.096-9.552h5.208l2.928 9.672 3.096-9.672h5.376zm2.758 3.672h5.424v13.128h-5.424V23.621zm2.712-1.056c-.976 0-1.768-.256-2.376-.767-.592-.529-.888-1.192-.888-1.992s.296-1.456.888-1.968c.608-.529 1.4-.793 2.376-.793.992 0 1.784.248 2.376.744.592.497.888 1.136.888 1.92 0 .833-.296 1.52-.888 2.065-.592.527-1.384.791-2.376.791zm15.436.817c1.616 0 2.912.488 3.888 1.463.992.976 1.488 2.448 1.488 4.416v7.488h-5.424v-6.551c0-1.505-.536-2.256-1.608-2.256-.608 0-1.104.216-1.488.648-.368.416-.552 1.08-.552 1.992v6.168h-5.424V23.62h5.16v1.296a5.005 5.005 0 011.776-1.151 6.085 6.085 0 012.184-.384zm18.604 12.911c-.816.465-1.928.697-3.336.697-1.84 0-3.256-.44-4.248-1.32-.992-.896-1.488-2.232-1.488-4.008V28.3h-1.8v-3.96h1.8v-3.672h5.424v3.671h2.688v3.96h-2.688v3.313c0 .4.104.712.312.935.208.224.48.337.816.337.464 0 .872-.12 1.224-.36l1.296 3.767zm16.184-6.12c0 .08-.024.505-.072 1.273h-9.12c.192.495.512.88.96 1.151.448.257 1.008.385 1.68.385.576 0 1.056-.073 1.44-.217.4-.144.832-.392 1.296-.744l2.832 2.856c-1.28 1.409-3.192 2.113-5.736 2.113-1.584 0-2.976-.288-4.176-.864-1.2-.593-2.128-1.408-2.784-2.449-.656-1.04-.984-2.208-.984-3.504 0-1.312.32-2.48.96-3.503a6.72 6.72 0 012.664-2.425c1.136-.575 2.408-.863 3.816-.863 1.328 0 2.536.264 3.624.791a6.147 6.147 0 012.616 2.328c.656 1.024.984 2.248.984 3.672zm-7.176-3.096c-.56 0-1.024.152-1.392.456-.368.305-.608.736-.72 1.296h4.224c-.112-.543-.352-.968-.72-1.271-.368-.32-.832-.48-1.392-.48zm15.247-2.04c.96-1.104 2.376-1.655 4.248-1.655v4.8a8.226 8.226 0 00-1.2-.097c-1.856 0-2.784.945-2.784 2.832v5.832h-5.424V23.621h5.16v1.416zm24.237 12.096c-1.776 0-3.376-.367-4.8-1.103-1.424-.753-2.544-1.793-3.36-3.12-.8-1.345-1.2-2.864-1.2-4.56 0-1.697.4-3.209 1.2-4.537a8.317 8.317 0 013.36-3.12c1.424-.752 3.024-1.128 4.8-1.128 1.632 0 3.088.288 4.368.864a8.107 8.107 0 013.168 2.496l-3.576 3.192c-1.04-1.311-2.264-1.968-3.672-1.968-1.184 0-2.136.384-2.856 1.152-.72.752-1.08 1.768-1.08 3.049 0 1.28.36 2.303 1.08 3.072.72.752 1.672 1.127 2.856 1.127 1.408 0 2.632-.656 3.672-1.968l3.576 3.193a8.107 8.107 0 01-3.168 2.495c-1.28.576-2.736.864-4.368.864zm10.203-18.191h5.424v17.808h-5.424V18.94zm15.964 18.048c-1.456 0-2.768-.288-3.936-.864-1.152-.593-2.056-1.4-2.712-2.425-.656-1.04-.984-2.216-.984-3.528 0-1.312.328-2.48.984-3.503.656-1.04 1.56-1.849 2.712-2.425 1.168-.575 2.48-.863 3.936-.863 1.472 0 2.784.288 3.936.863 1.168.576 2.072 1.384 2.712 2.425.656 1.023.984 2.191.984 3.503 0 1.313-.328 2.488-.984 3.528-.64 1.024-1.544 1.832-2.712 2.424-1.152.576-2.464.864-3.936.864zm0-4.224c.624 0 1.136-.224 1.536-.672.4-.465.6-1.105.6-1.92 0-.816-.2-1.448-.6-1.896-.4-.449-.912-.672-1.536-.672s-1.136.223-1.536.671c-.4.448-.6 1.08-.6 1.896 0 .816.2 1.456.6 1.92.4.449.912.672 1.536.672zm20.202 3.527c-.816.465-1.928.697-3.336.697-1.84 0-3.256-.44-4.248-1.32-.992-.896-1.488-2.232-1.488-4.008V28.3h-1.8v-3.96h1.8v-3.672h5.424v3.671h2.688v3.96h-2.688v3.313c0 .4.104.712.312.935.208.224.48.337.816.337.464 0 .872-.12 1.224-.36l1.296 3.767zm11.687-12.912c1.616 0 2.912.489 3.888 1.465.992.976 1.488 2.448 1.488 4.416v7.488h-5.424v-6.553c0-1.504-.536-2.256-1.608-2.256-.608 0-1.104.216-1.488.648-.368.416-.552 1.08-.552 1.992v6.169h-5.424V18.94h5.424v5.736c1.008-.863 2.24-1.295 3.696-1.295zm23.134 6.793c0 .08-.024.504-.072 1.272h-9.12c.192.495.512.88.96 1.151.448.257 1.008.385 1.68.385.576 0 1.056-.073 1.44-.217.4-.144.832-.392 1.296-.744l2.832 2.856c-1.28 1.409-3.192 2.113-5.736 2.113-1.584 0-2.976-.288-4.176-.864-1.2-.593-2.128-1.408-2.784-2.449-.656-1.04-.984-2.208-.984-3.504 0-1.312.32-2.48.96-3.503a6.72 6.72 0 012.664-2.425c1.136-.575 2.408-.863 3.816-.863 1.328 0 2.536.264 3.624.791a6.147 6.147 0 012.616 2.328c.656 1.024.984 2.248.984 3.672zm-7.176-3.096c-.56 0-1.024.151-1.392.455-.368.305-.608.736-.72 1.296h4.224c-.112-.543-.352-.968-.72-1.271-.368-.32-.832-.48-1.392-.48zm15.224 9.912c-1.12 0-2.224-.12-3.312-.36-1.088-.24-1.968-.552-2.64-.936l1.488-3.576c.608.367 1.328.656 2.16.864a9.98 9.98 0 002.424.311c.624 0 1.056-.047 1.296-.144.256-.112.384-.272.384-.48 0-.207-.16-.352-.48-.431-.304-.08-.808-.16-1.512-.24-1.072-.128-1.984-.288-2.736-.48a4.465 4.465 0 01-1.992-1.177c-.56-.575-.84-1.4-.84-2.471 0-.849.256-1.608.768-2.28.512-.672 1.272-1.208 2.28-1.608 1.024-.4 2.248-.6 3.672-.6.992 0 1.96.096 2.904.288.96.175 1.776.44 2.448.791l-1.488 3.576c-1.152-.64-2.416-.96-3.792-.96-1.184 0-1.776.209-1.776.625 0 .207.16.36.48.456.32.08.824.16 1.512.24 1.072.128 1.976.296 2.712.504.752.207 1.408.6 1.968 1.175.576.576.864 1.4.864 2.472 0 .816-.256 1.56-.768 2.233-.512.672-1.28 1.208-2.304 1.608-1.024.4-2.264.6-3.72.6z" fill="#000"/></mask><g mask="url(#a)"><path fill="#fff" d="M0 1h292v55H0z"/><path d="M29.352 23.6L26.664 32h-3.036l-1.356-4.488L20.844 32h-3.036l-2.688-8.4h2.916l1.464 4.776 1.548-4.776h2.604l1.464 4.836 1.548-4.836h2.688zm4.844 8.592c-.888 0-1.688-.184-2.4-.552a4.27 4.27 0 01-1.68-1.56c-.4-.672-.6-1.432-.6-2.28 0-.848.2-1.604.6-2.268a4.158 4.158 0 011.68-1.56c.712-.376 1.512-.564 2.4-.564.816 0 1.544.144 2.184.432.64.288 1.168.704 1.584 1.248l-1.788 1.596c-.52-.656-1.132-.984-1.836-.984-.592 0-1.068.192-1.428.576-.36.376-.54.884-.54 1.524s.18 1.152.54 1.536c.36.376.836.564 1.428.564.704 0 1.316-.328 1.836-.984l1.788 1.596c-.416.544-.944.96-1.584 1.248-.64.288-1.368.432-2.184.432z" fill="#000"/></g><defs><clipPath id="clip0"><path fill="#fff" transform="translate(0 .749)" d="M0 0h53.952v55H0z"/></clipPath></defs></svg>