<svg width="309" height="56" viewBox="0 0 309 56" fill="none" xmlns="http://www.w3.org/2000/svg">
<mask id="mask0" style="mask-type:alpha" maskUnits="userSpaceOnUse" x="0" y="0" width="309" height="56">
<g clip-path="url(#clip0)">
<path d="M51.7302 40.722L50.3695 39.3351V32.9491C50.3695 27.1182 48.2831 21.5053 44.4946 17.1444C41.3494 13.5241 37.2277 10.9824 32.6868 9.81924C33.0532 9.00691 33.2591 8.10446 33.2591 7.15346C33.2591 3.62175 30.4406 0.748535 26.9762 0.748535C23.5118 0.748535 20.6933 3.62175 20.6933 7.15346C20.6933 8.10446 20.8992 9.00691 21.2656 9.81924C16.7247 10.9824 12.6029 13.524 9.45779 17.1443C5.66921 21.5052 3.58288 27.1181 3.58288 32.9491V39.335L2.22216 40.7221C0.789159 42.183 0 44.1253 0 46.1911V55.7485H53.9524V46.1911C53.9524 44.1252 53.1632 42.183 51.7302 40.722ZM4.93348 42.5157H49.0188L49.4949 43.0009C50.305 43.8267 50.7611 44.9168 50.7885 46.0802H3.16391C3.1913 44.9168 3.64737 43.8267 4.4575 43.0009L4.93348 42.5157ZM26.9762 3.97119C28.6975 3.97119 30.0978 5.39872 30.0978 7.15346C30.0978 8.90819 28.6975 10.3357 26.9762 10.3357C25.2549 10.3357 23.8545 8.90819 23.8545 7.15346C23.8545 5.39872 25.2549 3.97119 26.9762 3.97119V3.97119ZM11.8244 19.281C14.9192 15.7186 19.1054 13.3643 23.6733 12.5989C24.6337 13.2065 25.7651 13.5585 26.9762 13.5585C28.1873 13.5585 29.3187 13.2065 30.2791 12.5989C34.8471 13.3643 39.0332 15.7187 42.128 19.2812C45.4041 23.0521 47.2082 27.9063 47.2082 32.9492V39.2932H42.7564V28.0566H39.5951V39.2931H35.4624V25.7898H32.3011V39.293H28.5568V32.1732H25.3956V39.293H21.6511V25.7898H18.4899V39.293H14.3572V28.0566H11.196V39.2931H6.74415V32.9491C6.74415 27.9061 8.5484 23.0519 11.8244 19.281V19.281ZM3.16127 52.5259V49.3029H50.7911V52.5259H3.16127Z" fill="black"/>
<path d="M6.53967 32.693C6.53967 21.187 15.6894 11.8596 26.9762 11.8596C38.263 11.8596 47.4127 21.187 47.4127 32.693V39.6374H6.53967V32.693Z" fill="#EEF6FF"/>
<path d="M30.0473 23.3485L27.3593 31.7485H24.3233L22.9673 27.2605L21.5393 31.7485H18.5033L15.8153 23.3485H18.7313L20.1953 28.1245L21.7433 23.3485H24.3473L25.8113 28.1845L27.3593 23.3485H30.0473ZM34.8912 31.9405C34.0032 31.9405 33.2032 31.7565 32.4912 31.3885C31.7792 31.0125 31.2192 30.4925 30.8112 29.8285C30.4112 29.1565 30.2112 28.3965 30.2112 27.5485C30.2112 26.7005 30.4112 25.9445 30.8112 25.2805C31.2192 24.6085 31.7792 24.0885 32.4912 23.7205C33.2032 23.3445 34.0032 23.1565 34.8912 23.1565C35.7072 23.1565 36.4352 23.3005 37.0752 23.5885C37.7152 23.8765 38.2432 24.2925 38.6592 24.8365L36.8712 26.4325C36.3512 25.7765 35.7392 25.4485 35.0352 25.4485C34.4432 25.4485 33.9672 25.6405 33.6072 26.0245C33.2472 26.4005 33.0672 26.9085 33.0672 27.5485C33.0672 28.1885 33.2472 28.7005 33.6072 29.0845C33.9672 29.4605 34.4432 29.6485 35.0352 29.6485C35.7392 29.6485 36.3512 29.3205 36.8712 28.6645L38.6592 30.2605C38.2432 30.8045 37.7152 31.2205 37.0752 31.5085C36.4352 31.7965 35.7072 31.9405 34.8912 31.9405Z" fill="black"/>
</g>
<path d="M94.4278 19.9485L89.0518 36.7485H82.9798L80.2678 27.7725L77.4118 36.7485H71.3398L65.9638 19.9485H71.7958L74.7238 29.5005L77.8198 19.9485H83.0278L85.9558 29.6205L89.0518 19.9485H94.4278ZM97.1863 23.6205H102.61V36.7485H97.1863V23.6205ZM99.8983 22.5645C98.9223 22.5645 98.1303 22.3085 97.5223 21.7965C96.9303 21.2685 96.6343 20.6045 96.6343 19.8045C96.6343 19.0045 96.9303 18.3485 97.5223 17.8365C98.1303 17.3085 98.9223 17.0445 99.8983 17.0445C100.89 17.0445 101.682 17.2925 102.274 17.7885C102.866 18.2845 103.162 18.9245 103.162 19.7085C103.162 20.5405 102.866 21.2285 102.274 21.7725C101.682 22.3005 100.89 22.5645 99.8983 22.5645ZM115.334 23.3805C116.95 23.3805 118.246 23.8685 119.222 24.8445C120.214 25.8205 120.71 27.2925 120.71 29.2605V36.7485H115.286V30.1965C115.286 28.6925 114.75 27.9405 113.678 27.9405C113.07 27.9405 112.574 28.1565 112.19 28.5885C111.822 29.0045 111.638 29.6685 111.638 30.5805V36.7485H106.214V23.6205H111.374V24.9165C111.886 24.4045 112.478 24.0205 113.15 23.7645C113.822 23.5085 114.55 23.3805 115.334 23.3805ZM133.938 36.2925C133.122 36.7565 132.01 36.9885 130.602 36.9885C128.762 36.9885 127.346 36.5485 126.354 35.6685C125.362 34.7725 124.866 33.4365 124.866 31.6605V28.3005H123.066V24.3405H124.866V20.6685H130.29V24.3405H132.978V28.3005H130.29V31.6125C130.29 32.0125 130.394 32.3245 130.602 32.5485C130.81 32.7725 131.082 32.8845 131.418 32.8845C131.882 32.8845 132.29 32.7645 132.642 32.5245L133.938 36.2925ZM150.122 30.1725C150.122 30.2525 150.098 30.6765 150.05 31.4445H140.93C141.122 31.9405 141.442 32.3245 141.89 32.5965C142.338 32.8525 142.898 32.9805 143.57 32.9805C144.146 32.9805 144.626 32.9085 145.01 32.7645C145.41 32.6205 145.842 32.3725 146.306 32.0205L149.138 34.8765C147.858 36.2845 145.946 36.9885 143.402 36.9885C141.818 36.9885 140.426 36.7005 139.226 36.1245C138.026 35.5325 137.098 34.7165 136.442 33.6765C135.786 32.6365 135.458 31.4685 135.458 30.1725C135.458 28.8605 135.778 27.6925 136.418 26.6685C137.074 25.6285 137.962 24.8205 139.082 24.2445C140.218 23.6685 141.49 23.3805 142.898 23.3805C144.226 23.3805 145.434 23.6445 146.522 24.1725C147.626 24.7005 148.498 25.4765 149.138 26.5005C149.794 27.5245 150.122 28.7485 150.122 30.1725ZM142.946 27.0765C142.386 27.0765 141.922 27.2285 141.554 27.5325C141.186 27.8365 140.946 28.2685 140.834 28.8285H145.058C144.946 28.2845 144.706 27.8605 144.338 27.5565C143.97 27.2365 143.506 27.0765 142.946 27.0765ZM158.193 25.0365C159.153 23.9325 160.569 23.3805 162.441 23.3805V28.1805C162.009 28.1165 161.609 28.0845 161.241 28.0845C159.385 28.0845 158.457 29.0285 158.457 30.9165V36.7485H153.033V23.6205H158.193V25.0365ZM182.43 37.1325C180.654 37.1325 179.054 36.7645 177.63 36.0285C176.206 35.2765 175.086 34.2365 174.27 32.9085C173.47 31.5645 173.07 30.0445 173.07 28.3485C173.07 26.6525 173.47 25.1405 174.27 23.8125C175.086 22.4685 176.206 21.4285 177.63 20.6925C179.054 19.9405 180.654 19.5645 182.43 19.5645C184.062 19.5645 185.518 19.8525 186.798 20.4285C188.078 21.0045 189.134 21.8365 189.966 22.9245L186.39 26.1165C185.35 24.8045 184.126 24.1485 182.718 24.1485C181.534 24.1485 180.582 24.5325 179.862 25.3005C179.142 26.0525 178.782 27.0685 178.782 28.3485C178.782 29.6285 179.142 30.6525 179.862 31.4205C180.582 32.1725 181.534 32.5485 182.718 32.5485C184.126 32.5485 185.35 31.8925 186.39 30.5805L189.966 33.7725C189.134 34.8605 188.078 35.6925 186.798 36.2685C185.518 36.8445 184.062 37.1325 182.43 37.1325ZM192.633 18.9405H198.057V36.7485H192.633V18.9405ZM208.597 36.9885C207.141 36.9885 205.829 36.7005 204.661 36.1245C203.509 35.5325 202.605 34.7245 201.949 33.7005C201.293 32.6605 200.965 31.4845 200.965 30.1725C200.965 28.8605 201.293 27.6925 201.949 26.6685C202.605 25.6285 203.509 24.8205 204.661 24.2445C205.829 23.6685 207.141 23.3805 208.597 23.3805C210.069 23.3805 211.381 23.6685 212.533 24.2445C213.701 24.8205 214.605 25.6285 215.245 26.6685C215.901 27.6925 216.229 28.8605 216.229 30.1725C216.229 31.4845 215.901 32.6605 215.245 33.7005C214.605 34.7245 213.701 35.5325 212.533 36.1245C211.381 36.7005 210.069 36.9885 208.597 36.9885ZM208.597 32.7645C209.221 32.7645 209.733 32.5405 210.133 32.0925C210.533 31.6285 210.733 30.9885 210.733 30.1725C210.733 29.3565 210.533 28.7245 210.133 28.2765C209.733 27.8285 209.221 27.6045 208.597 27.6045C207.973 27.6045 207.461 27.8285 207.061 28.2765C206.661 28.7245 206.461 29.3565 206.461 30.1725C206.461 30.9885 206.661 31.6285 207.061 32.0925C207.461 32.5405 207.973 32.7645 208.597 32.7645ZM228.799 36.2925C227.983 36.7565 226.871 36.9885 225.463 36.9885C223.623 36.9885 222.207 36.5485 221.215 35.6685C220.223 34.7725 219.727 33.4365 219.727 31.6605V28.3005H217.927V24.3405H219.727V20.6685H225.151V24.3405H227.839V28.3005H225.151V31.6125C225.151 32.0125 225.255 32.3245 225.463 32.5485C225.671 32.7725 225.943 32.8845 226.279 32.8845C226.743 32.8845 227.151 32.7645 227.503 32.5245L228.799 36.2925ZM240.486 23.3805C242.102 23.3805 243.398 23.8685 244.374 24.8445C245.366 25.8205 245.862 27.2925 245.862 29.2605V36.7485H240.438V30.1965C240.438 28.6925 239.902 27.9405 238.83 27.9405C238.222 27.9405 237.726 28.1565 237.342 28.5885C236.974 29.0045 236.79 29.6685 236.79 30.5805V36.7485H231.366V18.9405H236.79V24.6765C237.798 23.8125 239.03 23.3805 240.486 23.3805ZM263.62 30.1725C263.62 30.2525 263.596 30.6765 263.548 31.4445H254.428C254.62 31.9405 254.94 32.3245 255.388 32.5965C255.836 32.8525 256.396 32.9805 257.068 32.9805C257.644 32.9805 258.124 32.9085 258.508 32.7645C258.908 32.6205 259.34 32.3725 259.804 32.0205L262.636 34.8765C261.356 36.2845 259.444 36.9885 256.9 36.9885C255.316 36.9885 253.924 36.7005 252.724 36.1245C251.524 35.5325 250.596 34.7165 249.94 33.6765C249.284 32.6365 248.956 31.4685 248.956 30.1725C248.956 28.8605 249.276 27.6925 249.916 26.6685C250.572 25.6285 251.46 24.8205 252.58 24.2445C253.716 23.6685 254.988 23.3805 256.396 23.3805C257.724 23.3805 258.932 23.6445 260.02 24.1725C261.124 24.7005 261.996 25.4765 262.636 26.5005C263.292 27.5245 263.62 28.7485 263.62 30.1725ZM256.444 27.0765C255.884 27.0765 255.42 27.2285 255.052 27.5325C254.684 27.8365 254.444 28.2685 254.332 28.8285H258.556C258.444 28.2845 258.204 27.8605 257.836 27.5565C257.468 27.2365 257.004 27.0765 256.444 27.0765ZM271.668 36.9885C270.548 36.9885 269.444 36.8685 268.356 36.6285C267.268 36.3885 266.388 36.0765 265.716 35.6925L267.204 32.1165C267.812 32.4845 268.532 32.7725 269.364 32.9805C270.196 33.1885 271.004 33.2925 271.788 33.2925C272.412 33.2925 272.844 33.2445 273.084 33.1485C273.34 33.0365 273.468 32.8765 273.468 32.6685C273.468 32.4605 273.308 32.3165 272.988 32.2365C272.684 32.1565 272.18 32.0765 271.476 31.9965C270.404 31.8685 269.492 31.7085 268.74 31.5165C267.988 31.3085 267.324 30.9165 266.748 30.3405C266.188 29.7645 265.908 28.9405 265.908 27.8685C265.908 27.0205 266.164 26.2605 266.676 25.5885C267.188 24.9165 267.948 24.3805 268.956 23.9805C269.98 23.5805 271.204 23.3805 272.628 23.3805C273.62 23.3805 274.588 23.4765 275.532 23.6685C276.492 23.8445 277.308 24.1085 277.98 24.4605L276.492 28.0365C275.34 27.3965 274.076 27.0765 272.7 27.0765C271.516 27.0765 270.924 27.2845 270.924 27.7005C270.924 27.9085 271.084 28.0605 271.404 28.1565C271.724 28.2365 272.228 28.3165 272.916 28.3965C273.988 28.5245 274.892 28.6925 275.628 28.9005C276.38 29.1085 277.036 29.5005 277.596 30.0765C278.172 30.6525 278.46 31.4765 278.46 32.5485C278.46 33.3645 278.204 34.1085 277.692 34.7805C277.18 35.4525 276.412 35.9885 275.388 36.3885C274.364 36.7885 273.124 36.9885 271.668 36.9885Z" fill="black"/>
</mask>
<g mask="url(#mask0)">
<rect y="1" width="292" height="55" fill="white"/>
<path d="M29.352 23.6L26.664 32H23.628L22.272 27.512L20.844 32H17.808L15.12 23.6H18.036L19.5 28.376L21.048 23.6H23.652L25.116 28.436L26.664 23.6H29.352ZM34.196 32.192C33.308 32.192 32.508 32.008 31.796 31.64C31.084 31.264 30.524 30.744 30.116 30.08C29.716 29.408 29.516 28.648 29.516 27.8C29.516 26.952 29.716 26.196 30.116 25.532C30.524 24.86 31.084 24.34 31.796 23.972C32.508 23.596 33.308 23.408 34.196 23.408C35.012 23.408 35.74 23.552 36.38 23.84C37.02 24.128 37.548 24.544 37.964 25.088L36.176 26.684C35.656 26.028 35.044 25.7 34.34 25.7C33.748 25.7 33.272 25.892 32.912 26.276C32.552 26.652 32.372 27.16 32.372 27.8C32.372 28.44 32.552 28.952 32.912 29.336C33.272 29.712 33.748 29.9 34.34 29.9C35.044 29.9 35.656 29.572 36.176 28.916L37.964 30.512C37.548 31.056 37.02 31.472 36.38 31.76C35.74 32.048 35.012 32.192 34.196 32.192Z" fill="black"/>
</g>
<defs>
<clipPath id="clip0">
<rect width="53.9524" height="55" fill="white" transform="translate(0 0.748535)"/>
</clipPath>
</defs>
</svg>
