<svg width="170" height="60" fill="none" xmlns="http://www.w3.org/2000/svg"><path d="M114.242 17.5c-1.185-1.5-3.238-2.25-6.081-2.25-5.213 0-8.688 2.751-9.478 7.503l-2.448 14.671c-.395 2.251 0 4.085 1.026 5.419 1.185 1.5 3.239 2.25 6.082 2.25 5.212 0 8.688-2.75 9.477-7.502l2.449-14.672c.316-2.25 0-4.084-1.027-5.418zm-10.267 22.425c-.711 0-1.185-.166-1.422-.5-.237-.333-.316-.833-.237-1.667l2.527-15.172c.237-1.584 1.027-2.334 2.607-2.334.711 0 1.184.167 1.421.5.237.333.316.834.237 1.667l-2.527 15.172c-.237 1.667-1.027 2.334-2.606 2.334zM138.253 15.5h-6.397l-7.582 10.588 2.764-16.006h-6.397l-5.687 34.679h6.161l1.5-8.92 1.343-1.667 2.922 10.587h6.318l-4.58-16.006 9.635-13.254zm15.556 2c-1.184-1.5-3.238-2.25-6.081-2.25-5.213 0-8.688 2.751-9.478 7.503l-2.448 14.671c-.395 2.251 0 4.085 1.027 5.419 1.184 1.5 3.238 2.25 6.081 2.25 5.213 0 8.688-2.75 9.478-7.502l2.448-14.672c.395-2.25 0-4.084-1.027-5.418zm-10.188 22.425c-.711 0-1.185-.166-1.422-.5-.237-.333-.316-.833-.237-1.667l2.528-15.172c.237-1.584 1.026-2.334 2.606-2.334.711 0 1.185.167 1.422.5.237.333.316.834.237 1.667l-2.528 15.172c-.316 1.667-1.105 2.334-2.606 2.334zm18.007-.249l4.896-29.594h-6.397l-5.607 34.679h14.611l.868-5.085h-8.371zm-66.343-27.51c-1.263-1.751-3.396-2.668-6.318-2.668-5.529 0-9.083 3.168-9.952 9.003-.868 5.502 2.212 8.586 4.66 11.087 2.054 2.084 3.87 3.918 3.475 6.753-.316 1.917-1.105 2.75-2.764 2.75-.79 0-1.264-.166-1.58-.583-.316-.417-.316-1.084-.236-2l.394-2.501.08-.584h-6.398l-.079.417-.316 2.167c-.395 2.751-.079 4.919 1.106 6.503 1.264 1.75 3.475 2.667 6.476 2.667 5.608 0 9.24-3.168 10.11-9.003.868-5.502-2.212-8.586-4.66-11.087-2.054-2.084-3.87-3.918-3.475-6.753.316-1.917 1.105-2.834 2.685-2.834.71 0 1.185.167 1.5.5.317.417.317 1.084.238 2.084l-.237 1.5-.08.584h6.398l.079-.416.158-1.168c.237-2.584-.08-4.835-1.264-6.418zm-6.301 40.672h.87l-.159 1c.316-.667 1.027-1.167 1.58-1.167.158 0 .237 0 .395.083l-.237 1.334c-.158-.083-.237-.083-.395-.083-.869 0-1.422.667-1.659 2.084l-.553 3.25H87.8l1.184-6.501zm5.686.752c.632-.668 1.342-1.001 1.974-1.001 1.343 0 1.659 1.084 1.5 2.167l-.63 3.335c-.08.417-.159.833-.159 1.167h-.79c0-.334.08-.667.158-1-.553.833-1.105 1.167-1.816 1.167-.87 0-1.422-.667-1.185-1.918.316-1.667 1.5-2.25 2.843-2.25h.632l.08-.25c.157-.667-.08-1.418-.79-1.418-.632 0-1.027.417-1.422.75l-.395-.75zm1.974 2.583c-.79 0-1.816.167-2.053 1.25-.158.751.158 1.085.79 1.085.947 0 1.5-1 1.658-1.918l.08-.417h-.475zm8.372-1.586c-.237-.5-.552-.75-1.026-.75-.948 0-1.58 1.083-1.817 2.334-.237 1.25.158 2.25 1.027 2.25.474 0 .869-.25 1.264-.75l.473.917c-.552.75-1.263 1-1.895 1-1.422 0-2.054-1.416-1.738-3.417.395-2 1.58-3.418 3.002-3.418.631 0 1.184.333 1.579 1l-.869.834zm4.029 1.919c-.237 1.167.395 1.917 1.185 1.917.553 0 .948-.417 1.422-1l.552.75c-.631.917-1.342 1.334-2.211 1.334-1.422 0-2.053-1.5-1.659-3.418.316-1.918 1.58-3.418 2.923-3.418 1.579 0 1.895 1.75 1.579 3.418l-.079.417h-3.712zm2.843-1c.158-1.084-.078-1.918-.947-1.918s-1.58 1-1.738 1.917h2.685zm12.005-1.584h-1.185l-.553 2.917c-.158.75-.237 1.5.395 1.5.237 0 .474 0 .632-.166l-.237 1.167c-.237.167-.632.25-.79.25-1.342 0-1.105-1.167-.947-2.25l.631-3.418h-.947l.158-1.084h.947l.316-1.834h.869l-.316 1.834h1.185l-.158 1.084zm3.711-1.084h.869l-.158 1c.316-.667 1.026-1.167 1.579-1.167.158 0 .237 0 .395.083l-.237 1.334c-.158-.083-.237-.083-.395-.083-.868 0-1.421.667-1.658 2.084l-.553 3.25h-.869l1.027-6.501zm5.688.752c.632-.668 1.342-1.001 1.974-1.001 1.343 0 1.659 1.084 1.501 2.167l-.632 3.335c-.079.417-.158.833-.158 1.167h-.79c0-.334.079-.667.158-1-.553.833-1.105 1.167-1.816 1.167-.869 0-1.422-.667-1.185-1.918.316-1.667 1.501-2.25 2.843-2.25h.632l.079-.25c.158-.667-.079-1.418-.79-1.418-.631 0-1.026.417-1.421.75l-.395-.75zm1.974 2.583c-.789 0-1.816.167-2.053 1.25-.158.751.158 1.085.79 1.085.947 0 1.5-1 1.658-1.918l.079-.417h-.474zm8.371-1.586c-.236-.5-.552-.75-1.026-.75-.948 0-1.58 1.083-1.817 2.334-.237 1.25.158 2.25 1.027 2.25.474 0 .869-.25 1.264-.75l.473.917c-.552.75-1.263 1-1.895 1-1.422 0-2.053-1.416-1.738-3.417.395-2 1.58-3.418 3.002-3.418.631 0 1.184.333 1.579 1l-.869.834zm4.741-5.667h.869l-1.185 6.752 2.449-2.834h1.184l-2.606 2.918 1.658 3.584h-1.184l-1.501-3.418-.632 3.418h-.868l1.816-10.42z" fill="#000"/><g clip-path="url(#clip0_491:1347)"><path d="M49.28 24.64C49.28 11.055 38.21 0 24.607 0H23.34c-.2 0-.334 0-.467.067-.267 0-.467 0-.734.066-.2 0-.4.067-.666.067-.2 0-.334.066-.534.066-.267.067-.467.067-.733.134-.134 0-.267.066-.4.066l-.8.2c-.134 0-.268 0-.334.067-.267.066-.6.133-.867.266-.067 0-.133.067-.2.067a3.86 3.86 0 00-.934.332c-.066 0-.066 0-.133.067l-1 .4h-.067A24.442 24.442 0 000 22.642c.934-.2 9.603-1.864 14.604-3.995 9.336-3.996 13.337-5.328 14.67-5.328h4.002c-7.269 3.33-10.003 8.657-32.943 15.85.067.466.2.998.334 1.465.733-.134 7.135-1.599 15.938-5.994 9.069-4.528 17.338-11.321 18.671-11.321 0 0 4.401 0 4.668 1.332 0 0-3.334 1.332-8.669 5.327-2.667 1.998-16.004 13.32-27.74 17.448.333.533.666 1.066 1.066 1.599 1.8-.733 7.135-3.064 14.67-8.391 9.337-6.66 18.673-15.317 21.34-15.317 4.001 0 4.668 3.33 4.668 3.33-7.069-2.531-6.735 9.056-35.143 25.905a23.802 23.802 0 007.602 3.73c.067 0 .134 0 .134.066l.8.2c.066 0 .133 0 .2.066.4.067.8.2 1.267.267.2 0 .333.066.533.066s.334.067.534.067.4.066.667.066c.133 0 .333 0 .466.067.267 0 .467.067.734.067h1.534C38.21 49.28 49.28 38.225 49.28 24.64z" fill="#000"/></g><defs><clipPath id="clip0_491:1347"><path fill="#fff" d="M0 0h49.28v49.28H0z"/></clipPath></defs></svg>