<svg width="253" height="280" fill="none" xmlns="http://www.w3.org/2000/svg"><path d="M243.856 152.558l-50.763 17.311-20.469-11.631v-37.057l20.469-11.632 50.763 17.312c3.548 1.352 7.642-.811 8.733-4.328 1.365-3.516-.819-7.574-4.366-8.656l-39.301-13.254 36.844-21.098c3.275-1.894 4.367-6.222 2.457-9.467-1.911-3.246-6.278-4.328-9.553-2.435l-36.844 21.099 7.915-40.304c.819-3.787-1.638-7.303-5.459-8.115-3.821-.811-7.369 1.623-8.187 5.41l-10.371 52.205-20.469 11.631-15.557-8.926-.273-.27-15.829-9.197V67.894L173.988 33c3.002-2.434 3.275-6.762.546-9.738-2.456-2.975-6.823-3.246-9.825-.54L133.596 49.77V7.033c0-3.787-3.002-7.033-7.096-7.033-3.821 0-7.096 2.975-7.096 7.033V49.23L88.291 22.45c-3.002-2.434-7.369-2.163-9.825.542-2.456 2.975-2.183 7.303.546 9.738l40.392 34.893v23.262l-15.829 9.197-15.83 9.197-20.469-11.631-10.37-52.205c-.82-3.787-4.367-6.222-8.188-5.41-3.821.811-6.278 4.328-5.459 8.115l7.915 40.303L14.33 67.353c-3.275-1.894-7.642-.812-9.553 2.434-1.91 3.246-.818 7.574 2.457 9.467l36.844 21.099-39.3 13.254c-3.549 1.352-5.732 5.139-4.367 8.656 1.364 3.516 5.185 5.68 8.733 4.327l50.763-17.311 20.47 11.631v37.058h.272L60.18 169.599 9.417 152.287c-3.548-1.352-7.642.812-8.733 4.328-1.365 3.517.818 7.574 4.366 8.656l39.3 13.254-36.843 21.098c-3.275 1.894-4.367 6.222-2.457 9.468 1.91 3.246 6.278 4.328 9.553 2.434l36.844-21.098-7.915 40.303c-.819 3.787 1.638 7.303 5.459 8.115 3.82.811 7.368-1.623 8.187-5.41L67.55 181.23l20.47-11.631 16.102 9.197 15.829 9.196v23.263l-40.392 34.893c-3.003 2.435-3.275 6.763-.546 9.738 2.456 2.975 6.823 3.246 9.825.541l31.113-27.049v42.737c0 3.787 3.002 7.033 7.096 7.033 3.821 0 7.096-2.975 7.096-7.033v-42.196l31.113 27.049c3.002 2.434 7.369 2.164 9.825-.541 2.456-2.975 2.183-7.303-.546-9.738l-40.938-35.164v-23.262l15.829-9.197 15.83-9.197 20.469 11.631 10.371 52.206c.818 3.786 4.366 6.221 8.187 5.409 3.821-.811 6.278-4.327 5.459-8.114l-7.915-40.304 36.844 21.099c3.275 1.893 7.642.811 9.553-2.435 1.91-3.246.818-7.574-2.457-9.467l-36.844-21.098 39.301-13.255c3.547-1.352 5.731-5.139 4.366-8.655-1.364-3.517-5.185-5.681-8.733-4.328zm-85.97-12.984v18.394l-15.83 9.196-15.556 8.927-16.102-9.197-15.83-9.197v-36.516l15.83-9.197 15.829-9.197 15.829 9.197.273.27 15.557 8.927v18.393z" fill="#E4F1FF"/></svg>